<svg width="44" height="44" viewBox="0 0 44 44" fill="none" xmlns="http://www.w3.org/2000/svg">
<rect width="44" height="44" fill="black"/>
<circle cx="22" cy="22" r="22" fill="url(#paint0_linear_2298_2620)"/>
<path fill-rule="evenodd" clip-rule="evenodd" d="M22 12.1397C27.2963 12.1397 31.5897 16.5595 31.5897 22.0115C31.5897 27.4635 27.2963 31.8833 22 31.8833V12.1397Z" fill="black"/>
<path fill-rule="evenodd" clip-rule="evenodd" d="M22 12.1845L22 5.64094C21.9945 5.64093 21.9891 5.64094 21.9836 5.64094C12.9578 5.64094 5.64099 12.9651 5.64099 21.9999C5.64099 31.0347 12.9578 38.3589 21.9836 38.3589C21.9891 38.3589 21.9945 38.3589 22 38.3589V31.8153C21.9945 31.8153 21.9891 31.8153 21.9836 31.8153C16.5682 31.8153 12.178 27.4208 12.178 21.9999C12.178 16.579 16.5682 12.1845 21.9836 12.1845C21.9891 12.1845 21.9945 12.1845 22 12.1845Z" fill="black"/>
<defs>
<linearGradient id="paint0_linear_2298_2620" x1="44" y1="21.9971" x2="0" y2="21.9971" gradientUnits="userSpaceOnUse">
<stop stop-color="white"/>
<stop offset="1" stop-color="#AAAAAA"/>
</linearGradient>
</defs>
</svg>
