<svg width="32" height="32" viewBox="0 0 32 32" fill="none" xmlns="http://www.w3.org/2000/svg">
<path d="M15.9798 32.0008C13.8225 32.0008 11.7308 31.5764 9.75747 30.7433C7.85275 29.9382 6.14443 28.7836 4.67614 27.3139C3.20785 25.8442 2.05753 24.1342 1.25013 22.2276C0.420908 20.2555 6.10352e-05 18.1617 6.10352e-05 16.0023C6.10352e-05 13.843 0.424025 11.7492 1.25637 9.77397C2.06065 7.86739 3.21408 6.15739 4.68237 4.68767C6.15066 3.21795 7.85899 2.06651 9.76371 1.25832C11.7308 0.428285 13.8225 0.00390625 15.9798 0.00390625C18.137 0.00390625 20.2288 0.428285 22.2021 1.26144C24.1068 2.06651 25.8151 3.22107 27.2834 4.69079C28.7517 6.16051 29.902 7.87051 30.7094 9.77709C31.5418 11.7492 31.9657 13.8461 31.9657 16.0055C31.9657 18.1648 31.5418 20.2586 30.7094 22.2338C29.9051 24.1404 28.7517 25.8504 27.2834 27.3201C25.8151 28.7899 24.1068 29.9413 22.2021 30.7495C20.2319 31.5764 18.137 32.0008 15.9798 32.0008ZM15.9798 1.25208C7.85587 1.25208 1.2439 7.86739 1.2439 16.0023C1.2439 24.1342 7.85275 30.7526 15.9798 30.7526C24.1037 30.7526 30.7157 24.1373 30.7157 16.0023C30.7157 7.87051 24.1068 1.25208 15.9798 1.25208ZM13.7695 22.393C13.6074 22.393 13.4422 22.3618 13.2926 22.2931C13.0276 22.2682 12.7782 22.159 12.6005 21.9842L7.34462 17.004L7.33838 16.9978C6.90819 16.5671 6.90819 15.8089 7.33838 15.3783C7.76858 14.9476 8.51676 14.9476 8.95007 15.372L13.5981 19.7781L22.997 9.85198L23.0032 9.84574C23.2059 9.64291 23.502 9.52433 23.8138 9.52433C24.1255 9.52433 24.4185 9.64291 24.6243 9.84574C25.0545 10.2764 25.0545 11.0253 24.6305 11.459L14.5863 22.0685L14.5801 22.0747C14.365 22.2838 14.0688 22.393 13.7695 22.393Z" fill="black"/>
</svg>
