<svg width="20" height="16" viewBox="0 0 20 16" fill="none" xmlns="http://www.w3.org/2000/svg">
<path d="M8.96393 8.68862L5.64981 5.37449C5.42131 5.146 5.05025 5.146 4.82176 5.37449C4.59327 5.60299 4.59327 5.97405 4.82176 6.20254L8.13589 9.51667C8.36438 9.74516 8.73544 9.74516 8.96393 9.51667C9.19438 9.29013 9.19438 8.91907 8.96393 8.68862Z" fill="white"/>
<path d="M15.1883 2.48973C14.9598 2.26124 14.5887 2.26124 14.3602 2.48973L8.28465 8.56726C8.05616 8.79575 8.05616 9.16681 8.28465 9.3953C8.51314 9.6238 8.8842 9.6238 9.1127 9.3953L15.1883 3.31973C15.4187 3.08928 15.4187 2.71822 15.1883 2.48973Z" fill="white"/>
</svg>
